<?xml version="1.0" encoding="UTF-8"?>
<svg id="a" data-name="Layer 1" xmlns="http://www.w3.org/2000/svg" width="1.115in" height=".873in" viewBox="0 0 80.27 62.821">
  <path d="M69.366,17.334l.153.008c.151.007.282.013.416.042.082.015.18.03.274.03.282,0,.413-.125.473-.229.063-.158.086-.35-.06-.576-.214-.332-.743-.613-1.054-.634-.046-.013-.127-.021-.205-.021-.5,0-.806.355-.812.699-.006.324.243.66.814.682Z" fill="#231f20"/>
  <path d="M80.168,24.461c-.095-.113-.249-.178-.423-.178-.1,0-.2.021-.29.06-1.074.34-1.597,1.218-2.102,2.067-.126.211-.251.423-.386.625-.379.429-1.049.959-1.623.959-.258,0-.472-.11-.652-.337-.527-.765-.44-1.787-.356-2.774l.015-.183c-.011-.254-.045-.927-.512-.928-.451,0-.8.778-.872,1.223-.066.165-.132.332-.198.5-.398,1.021-.81,2.078-1.599,2.8-.655.692-1.355,1.082-1.933,1.082-.775,0-1.226-.721-1.238-1.978-.046-.421.122-.834.284-1.233.118-.292.24-.594.283-.895l.01-.071-.03-.066c-.145-.324-.382-.372-.51-.372-.392,0-.791.425-1.176.837-.155.165-.33.353-.419.405-2.664,2.172-5.279,3.712-7.803,4.599-.181.075-.279.09-.332.09-.166-.114.043-.851.122-1.128.069-.243.128-.453.149-.618.398-1.396.794-2.832,1.191-4.268,1.55-5.61,3.153-11.412,5.264-16.917.107-.275,2.617-6.768,2.05-7.597-.071-.104-.183-.164-.307-.165h0c-.191,0-.392.133-.673.446l-.038.042-.016.055c-.312,1.064-.715,2.127-1.105,3.155-.422,1.112-.859,2.262-1.188,3.432-1.299,4.289-2.746,8.427-4.299,12.294-.234.521-.462,1.07-.692,1.626-.747,1.807-1.52,3.674-2.775,5.099-.078-.087-.199-.42-.29-.669-.345-.948-.923-2.536-2.837-2.536-.454,0-.967.092-1.524.272-.869.325-1.495.699-1.949,1.167.357-2.086.976-4.177,1.575-6.205.302-1.021.614-2.075.887-3.111.029-.161.144-.565.288-1.079.865-3.07,1.264-4.826.897-5.311-.081-.107-.197-.166-.328-.166h0c-.069,0-.142.017-.216.049l-.024.011-.021.015c-.599.433-.784,1.2-.948,1.875-.078.324-.152.629-.262.882-.411.923-.68,1.937-.941,2.917-.095.358-.19.715-.291,1.063-.552,1.997-.945,4.057-1.324,6.049-.111.58-.221,1.16-.336,1.739-.236.896-.53,1.82-.815,2.714-.283.89-.576,1.81-.817,2.722-.289.658-.571,1.495-.869,2.382-.815,2.42-1.739,5.162-3.431,6.203-.048.013-.08.016-.099.016-.129-.157-.004-.868,1.249-3.331.127-.25.223-.439.259-.526.063-.222.421-.674.737-1.074.787-.995,1.293-1.686,1.153-2.198-.035-.129-.13-.304-.383-.401l-.075-.029-.078.021c-.803.211-1.343,1.174-1.968,2.29-.772,1.378-1.648,2.94-3.106,2.94-.059,0-.119-.002-.18-.007-.737-.237-1.019-.859-1.246-1.359-.177-.39-.344-.758-.718-.758h0c-.415,0-.878.412-2.386,2.752-.108.104-.352.567-.806,1.441-.309.594-.767,1.475-1.085,1.982l.002-.013-.005-.037c-.054-.417.231-1.983.507-3.498.607-3.333.945-5.394.523-5.898-.082-.099-.195-.152-.317-.153-.329,0-.737.342-1.664,2.014-.533,1.016-1.011,2.069-1.473,3.087-.36.793-.732,1.613-1.125,2.403-.084.123-.24.424-.456.841-.445.861-1.628,3.148-2.131,3.148-.042,0-.169-.113-.252-.63-.202-.692-.2-2.098-.198-3.457.001-1.098.003-2.232-.093-3.093-.085-.764-.265-1.642-.912-1.642-.378,0-.974.286-2.248,2.52-.854,1.438-1.578,2.981-2.278,4.474-.854,1.821-1.738,3.704-2.861,5.396-.048.072-.091.133-.128.186.067-.404.243-1.098.528-2.073.042-.146.076-.259.093-.326,2.176-7.046,3.895-12.81,5.407-18.129.388-1.503.381-2.482-.02-3-.211-.273-.52-.411-.917-.412-1.391,0-3.676,1.749-5.188,2.906l-.418.319c-1.118.979-2.143,2.07-3.134,3.125-.564.6-1.147,1.221-1.734,1.808-1.368,1.493-2.796,2.976-4.178,4.411-2.021,2.099-4.11,4.269-6.044,6.5-.193.201-.392.42-.591.639-.435.48-.885.977-1.375,1.379-.056.045-.124.095-.196.148-.405.299-1.017.751-.737,1.328l.072.149.165-.008c1.225-.058,2.816-1.947,4.22-3.613.527-.625,1.024-1.216,1.385-1.553,1.236-1.333,2.504-2.657,3.731-3.938,1.573-1.642,3.199-3.339,4.75-5.049,2.519-2.69,5.044-5.257,8.197-7.067.38-.209.603-.253.722-.253s.166.042.197.083c.325.433-.163,2.117-.454,3.123-.17.587-.305,1.051-.331,1.338-.388,1.296-.794,2.635-1.199,3.972-.819,2.702-1.667,5.496-2.417,8.276-.13.516-.37,1.184-.623,1.892-.729,2.031-1.554,4.334-.918,5.662l.029.06.054.038c.138.096.289.144.45.144,1.121,0,2.323-2.378,3.667-5.251.327-.699.609-1.303.771-1.55.036-.061.142-.279.301-.606,1.863-3.851,2.667-5.115,3.008-5.43.004.047.005.11.002.193.043.333.033.986.022,1.742-.033,2.267-.078,5.372.879,6.343.208.211.454.318.731.318.31,0,.642-.133,1.013-.406l.029-.021.021-.028c1.356-1.766,2.346-3.828,3.303-5.822.465-.969.941-1.961,1.458-2.912-.092.633-.197,1.278-.306,1.945-.245,1.508-.499,3.068-.612,4.577-.062.704.014,1.164.234,1.404.112.122.257.187.421.187.549,0,1.193-.743,1.588-1.479.922-1.776,2.634-5.075,3.085-5.075.062,0,.21.203.307.337.316.434.793,1.091,1.869,1.091.447,0,.946-.111,1.521-.339-.009.029-.018.057-.024.077-.019.06-.037.115-.046.159-.321,1.006-.33,1.744-.02,2.168.171.234.428.358.743.358.702,0,1.638-.641,2.329-1.593.776-.934,1.264-2.047,1.689-3.169-.076.629-.11,1.239-.103,1.832-.002.067-.012.198-.023.366-.123,1.79-.165,3.524.362,4.088.124.133.28.203.45.203.167,0,.338-.065.523-.199l.045-.032.027-.048c.585-1.043,1.018-2.186,1.436-3.291.319-.842.649-1.713,1.041-2.522.254-.694.411-.713.629-.741.39-.049.746-.167,1.141-1.097.086-.046.192-.068.32-.068.276,0,.611.101.965.207.394.118.801.241,1.188.241.102,0,.2-.008.296-.027.204-.036.389-.055.548-.055.301,0,.51.065.639.199.27.279.248.905.222,1.629l-.011.332c-1.197,5.203-2.053,10.073-2.613,14.842-.082.951-.191,1.921-.297,2.859-.355,3.154-.722,6.416-.166,9.573l.009.05.028.043c.354.541.709.804,1.087.804,2.455,0,3.267-12.947,3.274-13.078.005-1.026.024-2.039.044-3.051.049-2.537.099-5.16-.098-7.758l-.01-.567c-.043-2.087-.088-4.244.878-6.104.396-.369.945-.537,1.526-.715.458-.141.932-.286,1.347-.541,1.168-.541,2.276-1.283,3.347-2,.427-.286.852-.571,1.283-.844.124-.068.284-.192.453-.325.236-.184.593-.462.755-.462.006,0,.059.054.071.291.353,2.453,1.46,2.963,2.328,2.963,1.476,0,3.144-1.479,4.121-3.007.634,1.356,1.487,1.658,2.119,1.658,1.102,0,2.307-.952,3.144-2.483.319-.598.772-1.035,1.47-1.421.216-.149.344-.33.383-.521.027-.152-.007-.289-.094-.392ZM58.249,24.985l-.048.169c-.062.222-.115.447-.156.674-.062.353-.167.712-.279,1.092-.1.338-.203.689-.271,1.035-.094.488-.212.905-.384,1.462-.084.257-.14.521-.195.776-.062.292-.121.569-.22.834-.043.094-.081.145-.105.17-.037-.051-.095-.17-.117-.365-.025-.193-.043-.381-.062-.569-.034-.344-.069-.7-.139-1.057-.008-.155-.037-.343-.067-.528-.079-.501-.148-.934.151-1.294.077-.095.157-.189.237-.285.264-.314.537-.639.738-.981.137-.225.266-.46.396-.697.074-.135.148-.27.224-.403.167-.293.287-.573.414-.869l.091-.21c.041-.095.083-.186.124-.275-.038.137-.072.273-.1.41-.062.307-.145.601-.233.912ZM56.02,43.479c.008.382.016.743,0,1.103l-.026.27c-.026.256-.053.521-.047.794.008.189.019.369.03.545.037.582.071,1.13-.044,1.724l-.005.025v.026c.026,1.458-.142,2.936-.303,4.364v.007s-.007.056-.007.056c-.02.344-.065.693-.108,1.031-.033.26-.067.521-.091.784-.028.865-.19,1.677-.362,2.537l-.046.232c-.101.53-.23,1.069-.356,1.591-.094.393-.188.784-.269,1.165l-.037.116c-.292.951-.472,1.335-.576,1.486-.028-.074-.065-.199-.101-.407-.099-.833-.143-1.836-.112-2.605.049-.324.066-.683.083-1.029.015-.312.031-.635.071-.95l.105-1.282c.123-1.52.249-3.091.441-4.624.081-.865.202-1.731.32-2.568.108-.766.219-1.558.299-2.348.08-.595.184-1.199.285-1.784.111-.643.225-1.307.31-1.972.149-.545.239-1.148.325-1.731.039-.259.077-.517.12-.77.011-.047.025-.11.042-.184.001.08.002.16.003.241v.06c-.031.45.004.909.038,1.353.031.402.06.782.043,1.171-.049.518-.038,1.053-.027,1.571ZM50.457,30.14c-.022.047-.043.08-.059.103,0,0-.001-.002-.002-.003-.029-.048-.069-.091-.135-.157.055.013.144.034.196.057ZM49.475,30.652c.18.161.35.313.372.499.019.235-.159.594-.317.912-.074.149-.145.293-.199.426-.127.27-.242.553-.36.842-.105.245-.223.492-.341.742-.206.435-.419.884-.575,1.333l-.106.297c-.103.291-.21.591-.336.88-.197.41-.38.796-.544,1.182,0-.106-.002-.196-.012-.261-.005-.163-.015-.354-.025-.545-.03-.549-.061-1.117-.016-1.659.205-2.046.688-4.093,1.156-6.072.03-.125.059-.251.089-.376.13.453.326.837.585,1.154.16.201.354.402.591.612l.039.035ZM49.568,29.039c-.049.015-.1.03-.125.03v.11h0v-.11c0-.019-.035-.169-.051-.241l-.016-.068c-.227-.912-.185-1.599.158-2.535l.006-.017.008-.031c.072-.345.272-.696.614-1.072.247-.31.584-.529,1.01-.663l.098-.036c.455-.164.926-.334,1.376-.334.114,0,.224.011.326.033,1.22.164,1.452,1.038,1.746,2.146l.058.218c.058.201.209.723.039.982-.325.473-.907.729-1.47.978l-.251.112c-.088.038-.187.085-.287.132-.156.075-.36.172-.49.207.01-.059.035-.154.092-.301.129-.323.164-.795-.022-1.069-.097-.144-.245-.223-.416-.223-.132,0-.271.046-.425.141-.4.302-.59.763-.742,1.133l-.002.006-.019.047c-.092.259-.225.355-.49.355-.038,0-.077-.002-.118-.006-.042-.003-.076-.004-.11-.004-.167,0-.338.028-.495.082ZM51.675,30.472c.05-.183.171-.333.317-.391.246-.114.5-.207.746-.296.167-.062.335-.123.499-.189.569-.237,1.168-.586,1.832-1.07.058-.039.097-.054.117-.06-.004.019.019.087.033.243.039.425.106.862.171,1.284l.074.494c.114.575.047.803-.028.895-.076.092-.23.133-.5.133-.173,0-.367-.017-.575-.034-.13-.011-.265-.022-.404-.031-.28-.025-.59-.083-.958-.178-.123-.034-.265-.061-.412-.089-.325-.062-.693-.133-.871-.303-.061-.083-.084-.241-.039-.408Z" fill="#231f20"/>
  <path d="M14.367,21.64c.139.134,9.445-4.61,9.43-4.687-.31-1.626-1.05-4.557-1.05-4.557l-.461.781s.337,2.294.164,2.349c-.598-.151-2.542-2.029-2.831-2.254,0,0-.013,3.62-.013,3.62l-3.822-4.083c.13.62,1.138,4.768.9,5.51-.069-.007-2.556-2.062-2.853-2.298.019.315.127,3.405-.01,3.683-.146.086-1.659-1.319-1.659-1.319,0,0-.738-.114-1.146-.234.96,1.119,2.948,3.102,3.351,3.49ZM21.623,15.989c.086.106.2.297.166.436-.081.33-1.138.931-1.309.13-.084-.392-.116-1.746-.116-1.746l1.259,1.18ZM18.765,17.361c.181.265.26.47-.021.687-.333.256-.976.581-1.194.049-.265-.647-.422-2.619-.422-2.619l1.637,1.883ZM14.574,17.611c.269.408,1.23,1.008,1.376,1.418.173.484-1.016,1.066-1.243.496-.056-.7-.183-1.925-.134-1.915Z" fill="#231f20"/>
</svg>